<svg t="1709304844521" class="icon" viewBox="0 0 1024 1024" version="1.1" xmlns="http://www.w3.org/2000/svg" p-id="2829" width="200" height="200"><path d="M512 46.208a42.666667 42.666667 0 0 1 4.992 85.077333L512 131.541333H174.208a42.666667 42.666667 0 0 0-42.368 37.717334l-0.298667 4.949333v487.850667L307.2 501.12a88.874667 88.874667 0 0 1 112.042667-6.570667l5.845333 4.608 150.442667 128.896 101.973333-101.888a88.874667 88.874667 0 0 1 110.122667-12.373333l6.058666 4.138667 104.832 78.592V512a42.666667 42.666667 0 0 1 85.077334-4.992l0.298666 4.992v342.698667a128 128 0 0 1-120.490666 127.786666l-7.509334 0.213334H174.208a128 128 0 0 1-127.786667-120.490667l-0.213333-7.509333V174.208a128 128 0 0 1 120.490667-127.786667l7.509333-0.213333H512zM366.378667 563.2l-1.536 0.853333-233.301334 213.76v76.885334a42.666667 42.666667 0 0 0 37.717334 42.368l4.949333 0.298666H855.893333a42.666667 42.666667 0 0 0 42.368-37.717333l0.298667-4.949333v-151.808l-3.285333-2.090667-152.789334-114.602667a3.541333 3.541333 0 0 0-3.2-0.554666l-1.450666 0.853333-97.28 97.28 76.970666 66.048a42.666667 42.666667 0 0 1-51.2 68.010667l-4.309333-3.2-292.437333-250.666667a3.541333 3.541333 0 0 0-3.2-0.768z m415.829333-516.992a42.666667 42.666667 0 0 1 42.410667 37.717333l0.256 4.949334v96h96a42.666667 42.666667 0 0 1 4.992 85.077333l-4.992 0.256h-96v96a42.666667 42.666667 0 0 1-85.034667 4.992l-0.298667-4.992v-96h-96a42.666667 42.666667 0 0 1-4.949333-85.034667l4.949333-0.298666h96v-96a42.666667 42.666667 0 0 1 42.666667-42.666667z" fill="#000000" p-id="2830"></path></svg>
