<svg t="1711108936050" class="icon" viewBox="0 0 1024 1024" version="1.1" xmlns="http://www.w3.org/2000/svg" p-id="73398" width="200" height="200"><path d="M309.653333 693.013333c-60.010667-59.989333-67.882667-143.296 3.072-214.272l206.357334-206.357333c1.685333-1.237333 54.549333-39.466667 107.349333 13.333333s20.394667 96.64 15.082667 105.6c-1.6 2.709333-72 73.109333-211.2 211.2-7.125333 7.125333-15.573333 14.592-30.165334 0-14.592-14.613333-7.125333-23.04 0-30.186666l165.952-165.930667a42.666667 42.666667 0 1 0-60.352-60.330667L339.84 512c-43.136 43.136-45.738667 105.109333 0 150.848s107.712 43.136 150.848 0l213.802667-214.037333c13.12-15.744 27.669333-40.405333 35.882666-72.32 14.208-55.253333-6.08-103.616-53.589333-151.104-47.488-47.488-95.850667-67.776-151.104-53.589334-31.893333 8.213333-56.554667 22.784-72.32 35.904L249.322667 421.482667c-1.984 1.984-18.56 19.413333-20.416 21.589333-85.162667 99.093333-69.482667 220.373333 20.416 310.293333 89.92 89.898667 211.2 105.6 310.293333 20.416 2.154667-1.877333 4.501333-3.349333 6.506667-5.333333l301.696-301.696a42.666667 42.666667 0 1 0-60.352-60.352L520.832 693.013333c-60.330667 60.352-151.189333 60.010667-211.2 0z" fill="#2A2A37" p-id="73399"></path></svg>
