<svg t="1713810956438" class="icon" viewBox="0 0 1024 1024" version="1.1" xmlns="http://www.w3.org/2000/svg" p-id="1445" width="200" height="200"><path d="M778.666667 128a32 32 0 0 1 31.701333 27.648L810.666667 160v704a32 32 0 0 1-63.701334 4.352l-0.298666-4.352V160a32 32 0 0 1 32-32z m-555.946667 9.386667a32 32 0 0 1 41.642667-3.114667l3.584 3.114667 352 352a32 32 0 0 1 3.114666 41.642666l-3.114666 3.584-352 352a32 32 0 0 1-48.341334-41.642666l3.114667-3.584L552.106667 512 222.72 182.613333a32 32 0 0 1 0-45.226666z" fill="#212121" p-id="1446"></path></svg>