<svg t="1680262275446" class="icon" viewBox="0 0 1024 1024" version="1.1"
   xmlns="http://www.w3.org/2000/svg" p-id="10591" width="200" height="200">
   <path
      d="M854.016 962.048H169.984c-59.904 0-108.544-48.128-108.544-108.544V367.616c0-6.144 1.536-12.288 5.12-17.92l123.392-232.96c18.944-33.792 55.296-54.272 93.696-54.272h456.192c38.912 0 74.752 20.992 93.696 54.272L957.44 349.696c3.584 5.12 5.12 11.264 5.12 17.92v486.4c0 59.904-48.128 108.032-108.544 108.032zM122.88 403.456v460.288c0 20.48 16.384 35.84 35.84 35.84h705.536c20.48 0 35.84-16.384 35.84-35.84V403.456H122.88z m21.504-61.952h735.744l-108.032-200.192c-6.656-11.264-8.192-17.92-20.992-17.92H273.92c-12.8 0-24.576 6.656-31.232 17.92L144.384 341.504z m551.424 257.024H328.192c-20.48 0-36.352-14.336-36.352-31.744 0-17.92 16.384-31.744 36.352-31.744h367.104c20.48 0 36.352 14.336 36.352 31.744s-15.872 31.744-35.84 31.744z"
      p-id="10592"></path>
</svg>
