<svg t="1707912339470" class="icon" viewBox="0 0 1024 1024" version="1.1" xmlns="http://www.w3.org/2000/svg" p-id="4077" width="200" height="200"><path d="M416 64H128c-35.2 0-64 28.8-64 64v768c0 35.2 28.8 64 64 64h288c35.2 0 64-28.8 64-64V128c0-35.2-28.8-64-64-64z m0 800c0 19.2-12.8 32-32 32H160c-19.2 0-32-12.8-32-32V160c0-19.2 12.8-32 32-32h224c19.2 0 32 12.8 32 32v704zM896 64H608c-35.2 0-64 28.8-64 64v768c0 35.2 28.8 64 64 64h288c35.2 0 64-28.8 64-64V128c0-35.2-28.8-64-64-64z m0 800c0 19.2-12.8 32-32 32H640c-19.2 0-32-12.8-32-32V160c0-19.2 12.8-32 32-32h224c19.2 0 32 12.8 32 32v704z" fill="#333333" p-id="4078"></path></svg>
