<svg t="1679934402143" class="icon" viewBox="0 0 1024 1024" version="1.1"
   xmlns="http://www.w3.org/2000/svg" p-id="26668" width="200" height="200">
   <path
      d="M353.536 32l531.008 1.152 6.016 0.512a36.928 36.928 0 0 1 30.912 36.48v232.832l-0.448 6.016a36.928 36.928 0 0 1-36.48 30.912h-232.896l-9.6 9.664v605.504l-0.512 6.016a36.928 36.928 0 0 1-36.48 30.912h-186.24l-6.016-0.512a36.928 36.928 0 0 1-30.912-36.416V349.568l-9.664-9.664h-232.96l-5.76-0.448a36.928 36.928 0 0 1-31.104-36.48v-112l0.448-5.76a36.928 36.928 0 0 1 18.752-26.688L353.536 32z m484.48 75.008H372.672l-191.36 103.04-5.12 8.512v37.824l9.728 9.664H455.68v642.432l9.664 9.728h93.184l9.6-9.728V266.048h269.888l9.6-9.6V116.608l-9.6-9.664z"
      fill="#595959" p-id="26669"></path>
</svg>
