<svg t="1691801984628" class="icon" viewBox="0 0 1024 1024" version="1.1" xmlns="http://www.w3.org/2000/svg" p-id="4340"
   width="1024" height="1024">
   <path
      d="M448 640h256v64H448v-64zM256 576h64v64H256V576z m64-64h64v64H320V512z m64-64h64v64H384V448zM320 384h64v64H320V384zM256 320h64v64H256V320zM192 128c-38.4 0-64 25.6-64 64v640c0 38.4 25.6 64 64 64h640c38.4 0 64-25.6 64-64V192c0-38.4-25.6-64-64-64H192z m0-64h640c70.4 0 128 57.6 128 128v640c0 70.4-57.6 128-128 128H192c-70.4 0-128-57.6-128-128V192c0-70.4 57.6-128 128-128z"
      fill="#585858" p-id="4341"></path>
</svg>
