<svg t="1710250071149" class="icon" viewBox="0 0 1024 1024" version="1.1" xmlns="http://www.w3.org/2000/svg" p-id="8055" width="200" height="200"><path d="M881.92 1013.12H423.68a75.52 75.52 0 0 1-75.52-76.16V365.44a76.16 76.16 0 0 1 75.52-76.16h327.04a64 64 0 0 1 46.08 18.56l140.8 133.76a69.76 69.76 0 0 1 20.48 48.64v448a76.16 76.16 0 0 1-76.16 74.88zM423.68 346.88a18.56 18.56 0 0 0-17.92 18.56v571.52a18.56 18.56 0 0 0 17.92 18.56h458.24a18.56 18.56 0 0 0 18.56-18.56v-448a7.68 7.68 0 0 0-3.2-6.4l-140.16-134.4a11.52 11.52 0 0 0-6.4 0z" fill="#282828" p-id="8056"></path><path d="M929.28 517.76h-229.12V327.04h57.6v132.48h171.52v58.24z" fill="#282828" p-id="8057"></path><path d="M353.28 805.12h-166.4A120.96 120.96 0 0 1 64 684.16V131.2A120.96 120.96 0 0 1 186.88 10.88h448a120.32 120.32 0 0 1 120.32 120.32V256h-57.6V128a64 64 0 0 0-64-64h-448a64 64 0 0 0-64 64v552.96a64 64 0 0 0 64 64h166.4z" fill="#282828" p-id="8058"></path></svg>
