<svg t="1713887714911" class="icon" viewBox="0 0 1024 1024" version="1.1" xmlns="http://www.w3.org/2000/svg" p-id="16853" width="200" height="200"><path d="M811.885714 190.171429H212.114286c-3.657143 0-10.971429 3.657143-14.628572 7.314285-3.657143 3.657143-7.314286 10.971429-3.657143 14.628572v168.228571c0 7.314286 3.657143 14.628571 10.971429 18.285714l245.028571 245.028572V877.714286c0 7.314286 3.657143 14.628571 7.314286 18.285714 7.314286 3.657143 14.628571 3.657143 18.285714 0l153.6-95.085714c7.314286-3.657143 7.314286-10.971429 7.314286-18.285715v-201.142857l182.857143-182.857143c3.657143-3.657143 7.314286-7.314286 10.971429-14.628571V212.114286c0-3.657143-3.657143-10.971429-7.314286-14.628572 0-3.657143-3.657143-7.314286-10.971429-7.314285zM768 321.828571H256V256h512v65.828571z" p-id="16854"></path></svg>