<svg t="1711034673543" class="icon" viewBox="0 0 1024 1024" version="1.1" xmlns="http://www.w3.org/2000/svg" p-id="1480" width="200" height="200"><path d="M939.52 331.38A465.39 465.39 0 1 0 976 512a462.4 462.4 0 0 0-36.48-180.62zM512 896c-211.74 0-384-172.26-384-384a382.29 382.29 0 0 1 90.31-247.12l540.81 540.81A382.29 382.29 0 0 1 512 896z m302.65-147.92L275.92 209.35A382.1 382.1 0 0 1 512 128c211.74 0 384 172.26 384 384a382.1 382.1 0 0 1-81.35 236.08z" fill="#494848" p-id="1481"></path></svg>
