<svg t="1698867145457" class="icon" viewBox="0 0 1024 1024" version="1.1" xmlns="http://www.w3.org/2000/svg" p-id="2866" width="1024" height="1024"><path d="M890.88 921.6c-15.36 0-30.72-15.36-30.72-30.72v-235.52c0-15.36 15.36-30.72 30.72-30.72s30.72 15.36 30.72 30.72v235.52c0 15.36-15.36 30.72-30.72 30.72z" fill="#666666" p-id="2867"></path><path d="M890.88 926.72c-20.48 0-35.84-15.36-35.84-35.84v-235.52c0-20.48 15.36-35.84 35.84-35.84s35.84 15.36 35.84 35.84v235.52c0 20.48-15.36 35.84-35.84 35.84z m0-291.84c-15.36 0-25.6 10.24-25.6 25.6v235.52c0 15.36 10.24 25.6 25.6 25.6s25.6-10.24 25.6-25.6v-235.52c0-15.36-10.24-25.6-25.6-25.6z" fill="#666666" p-id="2868"></path><path d="M921.6 890.88c0 15.36-15.36 30.72-30.72 30.72h-235.52c-15.36 0-30.72-15.36-30.72-30.72s15.36-30.72 30.72-30.72h235.52c15.36 5.12 30.72 15.36 30.72 30.72zM133.12 102.4c15.36 0 30.72 15.36 30.72 30.72v235.52c0 15.36-15.36 30.72-30.72 30.72S102.4 384 102.4 363.52V133.12c0-15.36 15.36-30.72 30.72-30.72z" fill="#666666" p-id="2869"></path><path d="M890.88 926.72h-235.52c-20.48 0-35.84-15.36-35.84-35.84s15.36-35.84 35.84-35.84h235.52c20.48 0 35.84 15.36 35.84 35.84s-15.36 35.84-35.84 35.84zM660.48 870.4c-15.36 0-25.6 10.24-25.6 25.6s10.24 25.6 25.6 25.6h235.52c15.36 0 25.6-10.24 25.6-25.6s-15.36-25.6-30.72-25.6h-230.4zM133.12 399.36c-20.48 0-35.84-15.36-35.84-35.84V133.12c0-20.48 15.36-35.84 35.84-35.84s35.84 15.36 35.84 35.84v235.52c0 15.36-15.36 30.72-35.84 30.72z m0-291.84c-15.36 0-25.6 10.24-25.6 25.6v235.52c0 15.36 10.24 25.6 25.6 25.6s25.6-10.24 25.6-25.6V133.12c0-15.36-15.36-25.6-25.6-25.6z" fill="#666666" p-id="2870"></path><path d="M102.4 133.12c0-15.36 15.36-30.72 30.72-30.72h235.52c15.36 0 30.72 15.36 30.72 30.72s-15.36 25.6-35.84 25.6H133.12c-15.36 0-30.72-10.24-30.72-25.6z" fill="#666666" p-id="2871"></path><path d="M363.52 163.84H133.12c-20.48 0-35.84-15.36-35.84-35.84 0-20.48 15.36-35.84 35.84-35.84h235.52c20.48 0 35.84 15.36 35.84 35.84-5.12 20.48-20.48 35.84-40.96 35.84zM133.12 107.52c-15.36 0-25.6 10.24-25.6 25.6 0 10.24 10.24 20.48 25.6 20.48h235.52c15.36 0 25.6-10.24 25.6-25.6S384 102.4 368.64 102.4H133.12zM102.4 890.88c0-15.36 15.36-30.72 30.72-30.72h235.52c15.36 0 30.72 15.36 30.72 30.72s-15.36 30.72-30.72 30.72H133.12c-15.36 0-30.72-15.36-30.72-30.72z" fill="#666666" p-id="2872"></path><path d="M368.64 926.72H133.12c-20.48 0-35.84-15.36-35.84-35.84s15.36-35.84 35.84-35.84h235.52c20.48 0 35.84 15.36 35.84 35.84s-20.48 35.84-35.84 35.84zM133.12 870.4c-15.36 0-25.6 10.24-25.6 25.6s10.24 25.6 25.6 25.6h235.52c15.36 0 25.6-10.24 25.6-25.6s-15.36-25.6-25.6-25.6H133.12z" fill="#666666" p-id="2873"></path><path d="M133.12 921.6c-15.36 0-30.72-15.36-30.72-30.72v-235.52c0-15.36 15.36-30.72 30.72-30.72s30.72 15.36 30.72 30.72v235.52c0 15.36-15.36 30.72-30.72 30.72z" fill="#666666" p-id="2874"></path><path d="M133.12 926.72c-20.48 0-35.84-15.36-35.84-35.84v-235.52c0-20.48 15.36-35.84 35.84-35.84 20.48 0 35.84 15.36 35.84 35.84v235.52c0 20.48-15.36 35.84-35.84 35.84z m0-291.84c-15.36 0-25.6 10.24-25.6 25.6v235.52c0 15.36 10.24 25.6 25.6 25.6s25.6-10.24 25.6-25.6v-235.52c0-15.36-15.36-25.6-25.6-25.6z" fill="#666666" p-id="2875"></path><path d="M117.76 906.24c-10.24-10.24-10.24-30.72 0-40.96l225.28-225.28c10.24-10.24 30.72-10.24 40.96 0s10.24 30.72 0 40.96l-225.28 225.28c-5.12 5.12-15.36 10.24-20.48 10.24s-15.36-5.12-20.48-10.24z" fill="#666666" p-id="2876"></path><path d="M138.24 921.6c-10.24 0-15.36-5.12-25.6-10.24-15.36-15.36-15.36-35.84 0-46.08l225.28-225.28c15.36-15.36 35.84-15.36 46.08 0 15.36 15.36 15.36 35.84 0 46.08l-225.28 225.28c0 5.12-10.24 10.24-20.48 10.24z m225.28-286.72c-5.12 0-10.24 0-15.36 5.12l-225.28 225.28c-10.24 10.24-10.24 25.6 0 35.84 10.24 10.24 25.6 10.24 35.84 0l225.28-225.28c10.24-10.24 10.24-25.6 0-35.84-5.12-5.12-10.24-5.12-20.48-5.12z" fill="#666666" p-id="2877"></path><path d="M921.6 133.12c0 15.36-15.36 30.72-30.72 30.72h-235.52c-15.36 0-30.72-15.36-30.72-30.72s15.36-30.72 30.72-30.72h235.52c15.36 0 30.72 15.36 30.72 30.72z" fill="#666666" p-id="2878"></path><path d="M890.88 168.96h-235.52c-20.48 0-35.84-15.36-35.84-35.84s15.36-35.84 35.84-35.84h235.52c20.48 0 35.84 15.36 35.84 35.84s-15.36 35.84-35.84 35.84z m-235.52-61.44c-15.36 0-25.6 10.24-25.6 25.6s10.24 25.6 25.6 25.6h235.52c15.36 0 25.6-10.24 25.6-25.6s-10.24-25.6-25.6-25.6h-235.52z" fill="#666666" p-id="2879"></path><path d="M890.88 102.4c15.36 0 30.72 15.36 30.72 30.72v235.52c0 15.36-15.36 30.72-30.72 30.72s-30.72-15.36-30.72-30.72V133.12c0-15.36 15.36-30.72 30.72-30.72z" fill="#666666" p-id="2880"></path><path d="M890.88 399.36c-20.48 0-35.84-15.36-35.84-35.84V133.12c0-20.48 15.36-35.84 35.84-35.84s35.84 15.36 35.84 35.84v235.52c0 15.36-15.36 30.72-35.84 30.72z m0-291.84c-15.36 0-25.6 10.24-25.6 25.6v235.52c0 15.36 10.24 25.6 25.6 25.6s25.6-10.24 25.6-25.6V133.12c0-15.36-10.24-25.6-25.6-25.6z" fill="#666666" p-id="2881"></path><path d="M906.24 117.76c10.24 10.24 10.24 30.72 0 40.96l-225.28 225.28c-10.24 10.24-30.72 10.24-40.96 0-10.24-10.24-10.24-30.72 0-40.96l225.28-225.28c10.24-10.24 25.6-10.24 40.96 0z" fill="#666666" p-id="2882"></path><path d="M655.36 399.36c-10.24 0-15.36-5.12-25.6-10.24-15.36-15.36-15.36-35.84 0-46.08l225.28-225.28c15.36-15.36 40.96-15.36 51.2-5.12 15.36 15.36 15.36 35.84 0 46.08l-225.28 225.28c-5.12 15.36-15.36 15.36-25.6 15.36z m230.4-281.6c-5.12 0-10.24 0-15.36 5.12l-225.28 225.28c-10.24 10.24-10.24 25.6 0 35.84 10.24 10.24 25.6 10.24 35.84 0l225.28-225.28c10.24-10.24 10.24-25.6 0-35.84-10.24-5.12-15.36-5.12-20.48-5.12z" fill="#666666" p-id="2883"></path></svg>
