<svg t="1711107870332" class="icon" viewBox="0 0 1024 1024" version="1.1" xmlns="http://www.w3.org/2000/svg" p-id="18892" width="200" height="200"><path d="M341.333333 384v298.666667h298.666667v42.666666a42.666667 42.666667 0 0 1-42.666667 42.666667H298.666667a42.666667 42.666667 0 0 1-42.666667-42.666667v-298.666666a42.666667 42.666667 0 0 1 42.666667-42.666667h42.666666z m384-128a42.666667 42.666667 0 0 1 42.666667 42.666667v298.666666a42.666667 42.666667 0 0 1-42.666667 42.666667h-298.666666a42.666667 42.666667 0 0 1-42.666667-42.666667V298.666667a42.666667 42.666667 0 0 1 42.666667-42.666667h298.666666z" fill="#666666" p-id="18893"></path></svg>
