<svg t="1707574722675" class="icon" viewBox="0 0 1024 1024" version="1.1" xmlns="http://www.w3.org/2000/svg" p-id="1441" width="200" height="200"><path d="M60.452771 925.077283c5.395785-20.683841 18.685402-38.070258 37.370804-48.861826l631.406714-364.115535L96.924278 147.484778l-0.199844-0.099922c-18.08587-11.191257-30.775956-28.577674-35.672131-48.961749-4.996097-20.483997-1.598751-41.667447 9.592506-59.653396C92.527713 2.697892 138.991413-9.692428 176.262295 10.491803h0.099922l749.91413 432.462139c25.180328 14.688525 40.068696 40.468384 39.76893 68.946136 0.299766 28.477752-14.588603 54.257611-39.868852 68.946136L176.562061 1013.208431c-11.89071 7.094457-25.480094 10.791569-39.169399 10.791569-6.594848 0-13.189696-0.899297-19.684621-2.498048-20.683841-5.395785-38.070258-18.58548-48.961749-37.270883-10.691647-17.886027-13.589383-38.969555-8.293521-59.153786z" p-id="1442"></path></svg>
