<svg t="1711108213211" class="icon" viewBox="0 0 1024 1024" version="1.1" xmlns="http://www.w3.org/2000/svg" p-id="34858" width="200" height="200"><path d="M512.353278 1024c-23.346406 0-46.692812-1.911402-69.766162-5.665941a96.252727 96.252727 0 0 1-77.275239-66.216415 135.436462 135.436462 0 0 0-130.521429-95.911406c-10.034859 0-20.001453 1.023965-29.763255 3.208425a94.88744 94.88744 0 0 1-94.341325-34.132173 519.150349 519.150349 0 0 1-69.766162-121.032685 96.935371 96.935371 0 0 1 18.909224-100.280324c47.102399-52.700075 47.102399-132.637624 0-185.337698a96.867107 96.867107 0 0 1-18.909224-100.348589A484.403797 484.403797 0 0 1 110.685868 197.318774a97.959336 97.959336 0 0 1 96.252727-34.132173c9.693537 2.184459 19.660132 3.276689 29.626726 3.344953a137.416128 137.416128 0 0 0 130.657958-96.047934 96.252727 96.252727 0 0 1 77.206975-66.216416A555.057395 555.057395 0 0 1 513.377243 0.034815c23.619464 0 47.102399 1.365287 70.517069 4.232389 36.180103 5.461148 66.216415 31.196806 77.275239 66.216416 9.966594 32.903415 32.220771 60.687003 62.188819 77.480032a135.641255 135.641255 0 0 0 98.095865 15.154685c6.621642-1.365287 13.379812-2.04793 20.137982-2.047931 29.012347-0.409586 56.522878 12.970226 74.135079 36.180103 26.964417 38.364562 49.696444 79.596227 67.923024 122.875823a96.867107 96.867107 0 0 1-18.909224 100.280324 139.191001 139.191001 0 0 0 0 185.405962c24.779957 27.100945 32.084242 65.943358 18.909224 100.280324a480.580994 480.580994 0 0 1-69.766161 121.032685 96.730578 96.730578 0 0 1-75.09078 36.180103c-6.416848 0-12.970226-0.682643-19.250546-2.116194a137.552657 137.552657 0 0 0-160.284683 92.702981 96.252727 96.252727 0 0 1-77.27524 66.216415c-22.663763 2.04793-46.829341 3.891068-69.629632 3.891068zM319.984352 525.055897a193.392891 193.392891 0 0 0 193.188098 193.734213c106.628908 0 193.05157-86.695719 193.051569-193.734213a193.597684 193.597684 0 0 0-193.119834-193.665948 193.392891 193.392891 0 0 0-193.119833 193.665948z m82.736387 0c0-61.096589 49.423386-110.58824 110.383446-110.58824s110.383447 49.491651 110.383447 110.58824a110.656504 110.656504 0 0 1-110.383447 110.724769A110.519976 110.519976 0 0 1 402.720739 524.987633z" p-id="34859"></path></svg>
