<svg t="1691597152885" viewBox="0 0 1024 1024" version="1.1"
   xmlns="http://www.w3.org/2000/svg" p-id="6556" width="200" height="200">
   <path
      d="M506.047 11.907c-272.67 0-494.14 221.47-494.14 494.14s221.47 494.139 494.14 494.139 494.139-221.47 494.139-494.14-221.47-494.139-494.14-494.139z m0 928.744c-239.33 0-434.605-195.274-434.605-434.604S266.716 71.442 506.047 71.442 940.65 266.716 940.65 506.047 745.377 940.65 506.047 940.65z"
      p-id="6557"></path>
   <path
      d="M776.335 485.805l-373.88-215.517c-9.525-4.762-20.241-4.762-29.767 0s-15.479 15.48-15.479 26.196v432.223c0 10.716 5.954 20.242 14.289 26.195 4.762 2.382 9.525 3.572 14.288 3.572s10.716-1.19 14.288-3.572l373.88-215.516c9.525-4.763 14.288-15.479 14.288-26.195s-2.382-21.433-11.907-27.386z m-359.59 190.511V347.684L702.511 512 416.744 676.316z"
      p-id="6558"></path>
</svg>
