<svg t="1711109180693" class="icon" viewBox="0 0 1024 1024" version="1.1" xmlns="http://www.w3.org/2000/svg" p-id="83373" width="200" height="200"><path d="M842.368 0a64 64 0 0 1 64 64l-0.064 206.528-194.368-181.248v230.4H388.288v384.576h323.648v235.52l194.368-183.424V960a64 64 0 0 1-64 64H64a64 64 0 0 1-64-64V64a64 64 0 0 1 64-64h778.368z m0.32 333.696a32 32 0 0 1 22.784 9.472l146.56 148.288a32 32 0 0 1 0 44.992l-146.56 148.288a32 32 0 0 1-54.784-22.464v-88.32H565.056a59.968 59.968 0 0 1 0-119.936h245.632v-88.32a32 32 0 0 1 32-32z" fill="#29333E" p-id="83374"></path></svg>
