<svg t="1710583620053" class="icon" viewBox="0 0 1024 1024" version="1.1" xmlns="http://www.w3.org/2000/svg" p-id="6958" width="200" height="200"><path d="M322.516 688.778a31.145 31.145 0 0 1-43.898 3.839l-181.47-152.26a31.145 31.145 0 1 1 40.058-47.737l181.47 152.26a31.145 31.145 0 0 1 3.84 43.898z m262.689-0.08a31.145 31.145 0 0 1-43.898 3.838l-67.095-56.301a31.145 31.145 0 1 1 40.058-47.738l67.095 56.302a31.145 31.145 0 0 1 3.84 43.898z" p-id="6959"></path><path d="M278.565 692.67a31.145 31.145 0 0 1-3.84-43.897L626.794 229.18a31.145 31.145 0 1 1 47.737 40.058L322.463 688.831a31.145 31.145 0 0 1-43.898 3.84z m262.85-0.187a31.145 31.145 0 0 1-3.84-43.898l332.952-396.798a31.145 31.145 0 1 1 47.737 40.058L585.312 688.643a31.145 31.145 0 0 1-43.898 3.84z" p-id="6960"></path></svg>
