<svg t="1710251372732" class="icon" viewBox="0 0 1024 1024" version="1.1" xmlns="http://www.w3.org/2000/svg" p-id="10284" width="200" height="200"><path d="M512 985.6a475.52 475.52 0 1 1 412.8-710.4 38.4 38.4 0 0 1-64 37.76 398.72 398.72 0 1 0 33.92 316.16 38.4 38.4 0 0 1 73.6 23.04A476.16 476.16 0 0 1 512 985.6z" fill="#5A607F" p-id="10285"></path><path d="M906.24 116.48l-48.64 124.16-134.4 21.76a7.68 7.68 0 0 0 0 15.36L954.88 384a23.68 23.68 0 0 0 32-28.16l-64-240.64a7.68 7.68 0 0 0-16.64 1.28z" fill="#5A607F" p-id="10286"></path></svg>
