<svg t="1692007389980" class="icon" viewBox="0 0 1024 1024" version="1.1"
   xmlns="http://www.w3.org/2000/svg" p-id="13858" width="1024" height="1024">
   <path
      d="M928 929.65H199.75a32 32 0 0 1-32-32V230.09a32 32 0 0 1 32-32H928a32 32 0 0 1 32 32v667.56a32 32 0 0 1-32 32z m-696.25-64H896V262.09H231.75z"
      p-id="13859"></path>
   <path
      d="M194.07 825.91H96a32 32 0 0 1-32-32V126.35a32 32 0 0 1 32-32h728.25a32 32 0 0 1 32 32v94.37a32 32 0 1 1-64 0v-62.37H128v603.56h66.07a32 32 0 1 1 0 64z"
      p-id="13860"></path>
   <path
      d="M447.05 381.08A31.87 31.87 0 1 1 415.17 413a31.91 31.91 0 0 1 31.88-31.87m0-64A95.87 95.87 0 1 0 542.92 413a95.88 95.88 0 0 0-95.87-95.87zM199.77 813.06a32 32 0 0 1-19.6-57.32l225-174a32 32 0 0 1 39.75 0.48l117.35 95.35L768.41 507.8a32 32 0 0 1 41.66 0.83L949.3 632.91a32 32 0 1 1-42.61 47.74l-118.77-106-205.15 169a32 32 0 0 1-40.53 0.14l-118-95.86-204.92 158.44a31.81 31.81 0 0 1-19.55 6.69z"
      p-id="13861"></path>
</svg>
