<svg t="1711110469447" class="icon" viewBox="0 0 1024 1024" version="1.1" xmlns="http://www.w3.org/2000/svg" p-id="105232" width="200" height="200"><path d="M1012.551511 239.790766l-185.229819-0.1L877.495643 9.674991C878.592642 4.687995 874.801646 0 869.714651 0H661.543854c-3.789996 0-6.982993 2.592997-7.779992 6.283994l-51.069951 233.207772-99.647902-0.1L553.31796 9.674991C554.415959 4.687995 550.624962 0 545.537967 0H337.367171c-3.789996 0-6.981993 2.592997-7.779993 6.283994l-50.97095 233.007772-164.481839-0.199999c-1.895998 0-3.690996 0.699999-5.086995 1.795998-1.396999 1.097999-2.393998 2.693997-2.792998 4.588995L64.160437 453.348557c-0.996999 4.986995 2.792997 9.575991 7.879993 9.575991h157.699846l-17.455983 79.597922-159.992844-0.1c-3.789996 0-7.081993 2.692997-7.779992 6.383994L2.317498 756.578261c-0.997999 4.986995 2.791997 9.575991 7.879992 9.575991h153.20985l-53.762947 245.67576c-1.096999 4.986995 2.692997 9.674991 7.679992 9.67499L325.199182 1023.999h0.1c3.789996 0 6.981993-2.592997 7.779993-6.283994l54.959946-251.560754h99.546903l-53.762948 245.67576c-1.096999 4.986995 2.692997 9.674991 7.679993 9.67499L649.374866 1023.999h0.1c3.789996 0 6.981993-2.592997 7.779992-6.283994l54.959946-251.660754h192.211813c3.789996 0 6.981993-2.592997 7.779992-6.283994l45.284956-207.073798c1.096999-4.987995-2.692997-9.675991-7.779992-9.67599l-188.620816-0.2 17.455983-79.995922h188.819815c3.789996 0 6.981993-2.593997 7.779993-6.283994l45.284955-207.073798c0.997999-4.987995-2.891997-9.675991-7.879992-9.67599z m-476.089535 302.930704l-99.547903-0.1 17.455983-79.696922h99.646903l-17.555983 79.796922z" p-id="105233"></path></svg>
