<svg t="1713851193547" class="icon" viewBox="0 0 1024 1024" version="1.1" xmlns="http://www.w3.org/2000/svg" p-id="23206" width="200" height="200"><path d="M882.8 341.6l-264-264c-11.2-11.2-26.4-13.2-42-13.2H144c-8.8 0-16 7.2-16 16V944c0 8.8 7.2 16 16 16h736c8.8 0 16-7.2 16-16V383.2c0-15.2-2-30.4-13.2-41.6z m-80 10.4H608V157.2L802.8 352zM192 896V128h352v272c0 8.8 7.2 16 16 16h272v480H192z" p-id="23207"></path><path d="M400 512H240c-8.8 0-16 7.2-16 16v32c0 8.8 7.2 16 16 16h100.8l-113.2 184.8c-2.4 3.6-3.6 8-3.6 12.4V816c0 8.8 7.2 16 16 16h160c8.8 0 16-7.2 16-16v-32c0-8.8-7.2-16-16-16H298.4l117.6-192v-48c0-8.8-7.2-16-16-16zM496 512h32c8.8 0 16 7.2 16 16v288c0 8.8-7.2 16-16 16h-32c-8.8 0-16-7.2-16-16v-288c0-8.8 7.2-16 16-16zM698 512H620c-8.8 0-16 7.2-16 16v288c0 8.8 7.2 16 16 16h32c8.8 0 16-7.2 16-16v-100h30c56.4 0 102-45.6 102-102S754.4 512 698 512z m0 140H668v-76h30c20.8 0 38 17.2 38 38s-17.2 38-38 38z" p-id="23208"></path></svg>